HIERARCHY
ROOT Hips
{
	OFFSET -0.066283 88.859909 3.106752
	CHANNELS 6 Xposition Yposition Zposition Zrotation Yrotation Xrotation 
	JOINT Spine
	{
		OFFSET -0.000000 8.814246 -2.080107
		CHANNELS 3 Zrotation Yrotation Xrotation
		JOINT Spine1
		{
			OFFSET -0.000000 8.844141 0.000000
			CHANNELS 3 Zrotation Yrotation Xrotation
			JOINT Spine2
			{
				OFFSET 0.000000 11.682268 0.000000
				CHANNELS 3 Zrotation Yrotation Xrotation
				JOINT Spine3
				{
					OFFSET -0.000000 11.746700 0.000000
					CHANNELS 3 Zrotation Yrotation Xrotation
					JOINT Neck
					{
						OFFSET -0.000000 17.658264 0.000000
						CHANNELS 3 Zrotation Yrotation Xrotation
						JOINT Neck1
						{
							OFFSET 0.000000 5.101515 -0.000000
							CHANNELS 3 Zrotation Yrotation Xrotation
							JOINT Head
							{
								OFFSET -0.000000 5.101515 -0.000000
								CHANNELS 3 Zrotation Yrotation Xrotation
								JOINT HeadEnd
								{
									OFFSET 0.000000 11.655085 -0.000000
									CHANNELS 3 Zrotation Yrotation Xrotation
									End Site
									{
										OFFSET 0.000000 0.000000 0.000000
									}
								}
							}
						}
					}
					JOINT RightShoulder
					{
						OFFSET -2.625389 11.175210 -0.000000
						CHANNELS 3 Zrotation Yrotation Xrotation
						JOINT RightArm
						{
							OFFSET 0.000000 10.434715 -0.000000
							CHANNELS 3 Zrotation Yrotation Xrotation
							JOINT RightForeArm
							{
								OFFSET -0.000000 29.628420 0.000000
								CHANNELS 3 Zrotation Yrotation Xrotation
								JOINT RightHand
								{
									OFFSET -0.000000 22.857611 0.000000
									CHANNELS 3 Zrotation Yrotation Xrotation
									JOINT RightHandThumb1
									{
										OFFSET -2.867323 3.959563 2.944291
										CHANNELS 3 Zrotation Yrotation Xrotation
										JOINT RightHandThumb2
										{
											OFFSET -0.000000 3.350399 0.000000
											CHANNELS 3 Zrotation Yrotation Xrotation
											JOINT RightHandThumb3
											{
												OFFSET -0.000000 3.756509 -0.000000
												CHANNELS 3 Zrotation Yrotation Xrotation
												JOINT RightHandThumb4
												{
													OFFSET -0.000000 3.147345 0.000000
													CHANNELS 3 Zrotation Yrotation Xrotation
													End Site
													{
														OFFSET 0.000000 0.000000 0.000000
													}
												}
											}
										}
									}
									JOINT RightHandIndex1
									{
										OFFSET -0.086752 10.030893 2.345280
										CHANNELS 3 Zrotation Yrotation Xrotation
										JOINT RightHandIndex2
										{
											OFFSET 0.000000 4.061090 -0.000000
											CHANNELS 3 Zrotation Yrotation Xrotation
											JOINT RightHandIndex3
											{
												OFFSET 0.000000 3.248873 -0.000000
												CHANNELS 3 Zrotation Yrotation Xrotation
												JOINT RightHandIndex4
												{
													OFFSET 0.000000 2.639709 0.000000
													CHANNELS 3 Zrotation Yrotation Xrotation
													End Site
													{
														OFFSET 0.000000 0.000000 0.000000
													}
												}
											}
										}
									}
									JOINT RightHandMiddle1
									{
										OFFSET 0.104102 9.502952 0.006768
										CHANNELS 3 Zrotation Yrotation Xrotation
										JOINT RightHandMiddle2
										{
											OFFSET 0.000000 4.568727 0.000000
											CHANNELS 3 Zrotation Yrotation Xrotation
											JOINT RightHandMiddle3
											{
												OFFSET 0.000000 3.654981 -0.000000
												CHANNELS 3 Zrotation Yrotation Xrotation
												JOINT RightHandMiddle4
												{
													OFFSET -0.000000 2.741236 0.000000
													CHANNELS 3 Zrotation Yrotation Xrotation
													End Site
													{
														OFFSET 0.000000 0.000000 0.000000
													}
												}
											}
										}
									}
									JOINT RightHandRing1
									{
										OFFSET 0.086752 8.921708 -2.267442
										CHANNELS 3 Zrotation Yrotation Xrotation
										JOINT RightHandRing2
										{
											OFFSET 0.000000 4.061090 -0.000000
											CHANNELS 3 Zrotation Yrotation Xrotation
											JOINT RightHandRing3
											{
												OFFSET -0.000000 3.654981 0.000000
												CHANNELS 3 Zrotation Yrotation Xrotation
												JOINT RightHandRing4
												{
													OFFSET -0.000000 2.741236 0.000000
													CHANNELS 3 Zrotation Yrotation Xrotation
													End Site
													{
														OFFSET 0.000000 0.000000 0.000000
													}
												}
											}
										}
									}
									JOINT RightHandPinky1
									{
										OFFSET -0.173504 7.976997 -4.467199
										CHANNELS 3 Zrotation Yrotation Xrotation
										JOINT RightHandPinky2
										{
											OFFSET -0.000000 3.350399 0.000000
											CHANNELS 3 Zrotation Yrotation Xrotation
											JOINT RightHandPinky3
											{
												OFFSET 0.000000 2.842763 0.000000
												CHANNELS 3 Zrotation Yrotation Xrotation
												JOINT RightHandPinky4
												{
													OFFSET 0.000000 2.639709 0.000000
													CHANNELS 3 Zrotation Yrotation Xrotation
													End Site
													{
														OFFSET 0.000000 0.000000 0.000000
													}
												}
											}
										}
									}
									JOINT RightForeArmEnd
									{
										OFFSET 0.000000 0.000000 0.000000
										CHANNELS 3 Zrotation Yrotation Xrotation
										End Site
										{
											OFFSET 0.000000 0.000000 0.000000
										}
									}
								}
								JOINT RightArmEnd
								{
									OFFSET 0.000000 0.000000 0.000000
									CHANNELS 3 Zrotation Yrotation Xrotation
									End Site
									{
										OFFSET 0.000000 0.000000 0.000000
									}
								}
							}
						}
					}
					JOINT LeftShoulder
					{
						OFFSET 2.625389 11.175210 0.000000
						CHANNELS 3 Zrotation Yrotation Xrotation
						JOINT LeftArm
						{
							OFFSET -0.000000 10.813635 -0.000000
							CHANNELS 3 Zrotation Yrotation Xrotation
							JOINT LeftForeArm
							{
								OFFSET -0.000000 28.724781 -0.000000
								CHANNELS 3 Zrotation Yrotation Xrotation
								JOINT LeftHand
								{
									OFFSET 0.644384 25.716167 -0.328871
									CHANNELS 3 Zrotation Yrotation Xrotation
									JOINT LeftHandThumb1
									{
										OFFSET 2.867323 3.959563 2.944291
										CHANNELS 3 Zrotation Yrotation Xrotation
										JOINT LeftHandThumb2
										{
											OFFSET 0.000000 3.350399 0.000000
											CHANNELS 3 Zrotation Yrotation Xrotation
											JOINT LeftHandThumb3
											{
												OFFSET -0.000000 3.756509 -0.000000
												CHANNELS 3 Zrotation Yrotation Xrotation
												JOINT LeftHandThumb4
												{
													OFFSET 0.000000 3.100000 0.000000
													CHANNELS 3 Zrotation Yrotation Xrotation
													End Site
													{
														OFFSET 0.000000 0.000000 0.000000
													}
												}
											}
										}
									}
									JOINT LeftHandIndex1
									{
										OFFSET 0.086752 10.030893 2.345280
										CHANNELS 3 Zrotation Yrotation Xrotation
										JOINT LeftHandIndex2
										{
											OFFSET 0.000000 4.061090 0.000000
											CHANNELS 3 Zrotation Yrotation Xrotation
											JOINT LeftHandIndex3
											{
												OFFSET -0.000000 3.248873 -0.000000
												CHANNELS 3 Zrotation Yrotation Xrotation
												JOINT LeftHandIndex4
												{
													OFFSET 0.000000 2.639709 0.000000
													CHANNELS 3 Zrotation Yrotation Xrotation
													End Site
													{
														OFFSET 0.000000 0.000000 0.000000
													}
												}
											}
										}
									}
									JOINT LeftHandMiddle1
									{
										OFFSET -0.104102 9.502952 0.006768
										CHANNELS 3 Zrotation Yrotation Xrotation
										JOINT LeftHandMiddle2
										{
											OFFSET -0.000000 4.568727 -0.000000
											CHANNELS 3 Zrotation Yrotation Xrotation
											JOINT LeftHandMiddle3
											{
												OFFSET -0.000000 3.654981 -0.000000
												CHANNELS 3 Zrotation Yrotation Xrotation
												JOINT LeftHandMiddle4
												{
													OFFSET 0.000000 2.741236 0.000000
													CHANNELS 3 Zrotation Yrotation Xrotation
													End Site
													{
														OFFSET 0.000000 0.000000 0.000000
													}
												}
											}
										}
									}
									JOINT LeftHandRing1
									{
										OFFSET -0.086752 8.921708 -2.267442
										CHANNELS 3 Zrotation Yrotation Xrotation
										JOINT LeftHandRing2
										{
											OFFSET 0.000000 4.061090 0.000000
											CHANNELS 3 Zrotation Yrotation Xrotation
											JOINT LeftHandRing3
											{
												OFFSET 0.000000 3.654981 -0.000000
												CHANNELS 3 Zrotation Yrotation Xrotation
												JOINT LeftHandRing4
												{
													OFFSET -0.000000 2.741236 -0.000000
													CHANNELS 3 Zrotation Yrotation Xrotation
													End Site
													{
														OFFSET 0.000000 0.000000 0.000000
													}
												}
											}
										}
									}
									JOINT LeftHandPinky1
									{
										OFFSET 0.173504 7.976997 -4.467199
										CHANNELS 3 Zrotation Yrotation Xrotation
										JOINT LeftHandPinky2
										{
											OFFSET -0.000000 3.350399 -0.000000
											CHANNELS 3 Zrotation Yrotation Xrotation
											JOINT LeftHandPinky3
											{
												OFFSET 0.000000 2.842763 -0.000000
												CHANNELS 3 Zrotation Yrotation Xrotation
												JOINT LeftHandPinky4
												{
													OFFSET -0.000000 2.639709 -0.000000
													CHANNELS 3 Zrotation Yrotation Xrotation
													End Site
													{
														OFFSET 0.000000 0.000000 0.000000
													}
												}
											}
										}
									}
									JOINT LeftForeArmEnd
									{
										OFFSET 0.000000 0.000000 0.000000
										CHANNELS 3 Zrotation Yrotation Xrotation
										End Site
										{
											OFFSET 0.000000 0.000000 0.000000
										}
									}
								}
								JOINT LeftArmEnd
								{
									OFFSET 0.000000 0.000000 0.000000
									CHANNELS 3 Zrotation Yrotation Xrotation
									End Site
									{
										OFFSET 0.000000 0.000000 0.000000
									}
								}
							}
						}
					}
				}
			}
		}
	}
	JOINT RightUpLeg
	{
		OFFSET -11.289943 -0.000000 0.000000
		CHANNELS 3 Zrotation Yrotation Xrotation
		JOINT RightLeg
		{
			OFFSET 0.000000 -38.200325 -0.000000
			CHANNELS 3 Zrotation Yrotation Xrotation
			JOINT RightFoot
			{
				OFFSET -0.000000 -39.900856 0.000000
				CHANNELS 3 Zrotation Yrotation Xrotation
				JOINT RightToeBase
				{
					OFFSET 0.000000 0.000000 15.261641
					CHANNELS 3 Zrotation Yrotation Xrotation
					JOINT RightToeBaseEnd
					{
						OFFSET 0.000000 0.000000 7.370709
						CHANNELS 3 Zrotation Yrotation Xrotation
						End Site
						{
							OFFSET 0.000000 0.000000 0.000000
						}
					}
				}
				JOINT RightLegEnd
				{
					OFFSET 0.000000 0.000000 0.000000
					CHANNELS 3 Zrotation Yrotation Xrotation
					End Site
					{
						OFFSET 0.000000 0.000000 0.000000
					}
				}
			}
			JOINT RightUpLegEnd
			{
				OFFSET 0.000000 0.000000 0.000000
				CHANNELS 3 Zrotation Yrotation Xrotation
				End Site
				{
					OFFSET 0.000000 0.000000 0.000000
				}
			}
		}
	}
	JOINT LeftUpLeg
	{
		OFFSET 11.315661 0.000000 0.000000
		CHANNELS 3 Zrotation Yrotation Xrotation
		JOINT LeftLeg
		{
			OFFSET 0.000000 -38.200325 -0.000000
			CHANNELS 3 Zrotation Yrotation Xrotation
			JOINT LeftFoot
			{
				OFFSET 0.000000 -39.900856 -0.000000
				CHANNELS 3 Zrotation Yrotation Xrotation
				JOINT LeftToeBase
				{
					OFFSET 0.000000 -0.000000 15.261641
					CHANNELS 3 Zrotation Yrotation Xrotation
					JOINT LeftToeBaseEnd
					{
						OFFSET -0.000000 0.000000 7.539996
						CHANNELS 3 Zrotation Yrotation Xrotation
						End Site
						{
							OFFSET 0.000000 0.000000 0.000000
						}
					}
				}
				JOINT LeftLegEnd
				{
					OFFSET 0.000000 0.000000 0.000000
					CHANNELS 3 Zrotation Yrotation Xrotation
					End Site
					{
						OFFSET 0.000000 0.000000 0.000000
					}
				}
			}
			JOINT LeftUpLegEnd
			{
				OFFSET 0.000000 0.000000 0.000000
				CHANNELS 3 Zrotation Yrotation Xrotation
				End Site
				{
					OFFSET 0.000000 0.000000 0.000000
				}
			}
		}
	}
}
MOTION
Frames: 5
Frame Time: 0.016667
-0.066283 88.859909 3.106752 -0.554998 -0.063200 -6.496325 0.035903 -0.002268 5.888138 1.007702 -0.066753 0.859935 -0.482675 2.416700 3.828048 -0.160674 0.780135 1.924824 -2.324279 -0.847468 5.016633 -0.365139 -2.116586 -3.221972 0.720381 0.853138 -18.220909 0.000000 0.000000 0.000000 92.020271 -0.208433 5.546823 69.638977 -19.089216 -1.147147 0.059477 8.331356 28.544134 2.918324 25.791067 -8.931848 11.217805 -1.887472 39.615406 0.000000 0.000000 -27.315002 0.000000 0.000000 -18.968748 0.000000 0.000000 0.000000 13.213602 16.646936 -12.039722 11.238620 -0.665555 -3.398387 11.238004 0.315584 -3.203499 0.000000 0.000000 0.000000 14.610597 6.862490 -11.429158 11.135071 -0.860474 -1.356066 11.133999 0.111766 -1.162957 0.000000 0.000000 0.000000 19.862411 -8.846701 -10.677217 12.650033 1.760184 1.978157 12.644374 -0.177743 1.540332 0.000000 0.000000 0.000000 23.790291 -25.600758 -10.773308 12.395708 3.368127 5.825091 12.374576 -0.538114 4.967071 0.000000 0.000000 0.000000 0.000000 0.000000 0.000000 0.000000 0.000000 0.000000 -90.685371 0.125338 9.277699 -68.205345 33.746468 -2.114506 -0.906679 -12.804414 36.500160 -5.004631 -13.813062 -13.796777 -10.637670 1.840801 39.870987 0.000000 0.000000 -25.919998 0.000000 0.000000 -18.000004 0.000000 0.000000 0.000000 -15.727524 16.759449 -9.934354 -8.634541 -0.781970 2.617436 -8.634687 0.185794 2.467350 0.000000 0.000000 0.000000 -12.632174 6.870213 -11.103483 -7.858750 -0.942948 0.960031 -7.861093 -0.138773 0.818618 0.000000 0.000000 0.000000 -9.446996 -8.823497 -11.456291 -7.804728 1.917102 -1.226388 -7.800338 -0.064224 -0.954850 0.000000 0.000000 0.000000 -4.422287 -25.333719 -13.915033 -6.810095 3.806906 -3.213968 -6.795249 -0.160380 -2.740026 0.000000 0.000000 0.000000 0.000000 0.000000 0.000000 0.000000 0.000000 0.000000 1.904249 6.541767 7.475135 -0.037531 -0.408927 7.546108 -4.730400 1.738853 18.019159 -0.347465 0.340706 -20.620296 0.000000 0.000000 0.000000 0.000000 0.000000 0.000000 0.000000 0.000000 0.000000 1.163178 10.511868 11.895180 0.051614 0.626121 3.761402 1.290193 7.867616 18.489267 0.739732 -0.851381 -19.069050 0.000000 0.000000 0.000000 0.000000 0.000000 0.000000 0.000000 0.000000 0.000000 
-0.205014 88.708511 3.145526 -0.231947 0.112576 -8.222868 -1.115425 0.274785 6.915492 1.248380 -0.139405 2.205801 -0.606756 1.823512 3.379801 1.140114 0.272620 2.982862 -3.377512 -0.728089 4.230710 -0.452106 -1.945257 -3.359104 0.251110 0.506461 -18.135462 0.000000 0.000000 0.000000 90.529175 -0.124805 6.723167 69.331352 -19.327293 1.721894 0.208311 9.381900 27.634224 3.176310 24.767424 -8.965370 10.921925 -1.840727 39.778458 -0.000009 0.000018 -26.687033 -0.000005 0.000033 -18.527508 0.000002 -0.000006 -0.000008 13.385350 17.122896 -10.239539 10.656746 -0.644143 -2.914614 10.722032 0.344636 -2.725759 -0.000020 0.000015 -0.000024 14.317027 7.098549 -10.600180 10.570982 -0.866935 -1.165133 10.624522 0.121173 -0.992080 0.000022 0.000001 0.000006 19.362232 -9.165401 -10.456424 12.024639 1.802930 1.674838 11.962324 -0.177732 1.293208 -0.000032 -0.000023 0.000012 24.123375 -25.940828 -11.967364 12.043788 3.370867 4.994707 11.823669 -0.574029 4.260056 0.000327 -0.000005 0.000015 0.000000 0.000000 0.000000 0.000000 0.000000 0.000000 -91.067581 0.314741 9.065733 -66.931793 33.226402 -2.174573 -1.347985 -13.961744 36.438190 -5.576446 -11.529744 -13.955204 -10.572216 1.830528 39.904575 -0.000001 0.000014 -25.677567 -0.000024 -0.000023 -17.900139 -0.000569 -0.000002 0.000127 -16.057999 17.083635 -9.573440 -8.789137 -0.699875 2.770018 -9.024177 0.280297 2.606944 -0.000002 0.000878 0.000001 -13.022555 7.085212 -10.258095 -8.332563 -0.898075 1.067925 -8.078712 0.093993 0.918523 0.000517 -0.000036 -0.000105 -9.345687 -9.067633 -10.051863 -7.850543 1.869773 -1.498487 -7.746998 -0.115071 -1.137917 0.000021 0.000010 0.000001 -4.000786 -25.836905 -12.480074 -6.478169 3.587165 -4.009942 -6.507136 -0.355080 -3.466249 0.000038 -0.000013 -0.000033 0.000000 0.000000 0.000000 0.000000 0.000000 0.000000 2.287251 5.547145 7.694328 -0.066491 -0.381489 9.386003 -4.987166 0.950855 17.171373 -0.345601 0.397390 -21.023922 0.000000 0.000000 0.000000 0.000000 0.000000 0.000000 0.000000 0.000000 0.000000 1.738055 9.965037 13.081073 0.039934 0.677303 5.551042 0.628747 9.674574 16.971718 0.788155 -0.786371 -18.942375 0.000000 0.000000 0.000000 0.000000 0.000000 0.000000 0.000000 0.000000 0.000000 
-0.214285 88.710495 3.118866 -0.253802 0.158966 -8.324879 -1.122771 0.264167 6.983839 1.236314 -0.135800 2.234207 -0.644875 1.791008 3.410088 1.184187 0.232172 2.939803 -3.393071 -0.663899 4.331641 -0.433549 -1.875159 -3.211188 0.195265 0.492452 -18.160872 0.000000 0.000000 0.000000 90.573105 -0.112842 6.691032 69.110016 -19.549000 1.910519 0.146804 9.357625 27.616051 3.482985 24.653965 -9.049857 10.882190 -1.836686 39.799465 -0.000007 0.000032 -26.596640 -0.000007 0.000030 -18.467438 0.000013 -0.000001 -0.000019 13.295941 17.116444 -10.051843 10.566499 -0.656552 -2.875537 10.627167 0.333384 -2.688588 -0.000002 0.000025 -0.000022 14.191190 7.093802 -10.419362 10.459318 -0.872214 -1.147705 10.495217 0.116673 -0.977367 0.000020 -0.000023 -0.000002 19.221796 -9.157495 -10.361685 11.884412 1.812316 1.651628 11.813003 -0.170853 1.273714 -0.000037 0.000111 -0.000001 23.993465 -25.919584 -11.985307 11.907441 3.399243 4.929840 11.677195 -0.553283 4.202359 0.000298 0.000007 0.000006 0.000000 0.000000 0.000000 0.000000 0.000000 0.000000 -91.020157 0.272020 9.118385 -67.098778 33.162590 -2.308249 -1.319238 -13.854667 36.518208 -5.388685 -11.396887 -14.108371 -10.581378 1.824235 39.905922 0.000007 0.000019 -25.697382 -0.000023 -0.000010 -17.906248 -0.000726 0.000006 0.000096 -16.156109 17.093933 -9.547421 -8.860998 -0.705254 2.761670 -9.092327 0.276071 2.596533 0.000013 0.000808 0.000007 -13.091730 7.089460 -10.253408 -8.378068 -0.900286 1.059737 -8.131487 0.092223 0.913248 0.000515 -0.000032 -0.000144 -9.440875 -9.068789 -10.081450 -7.892107 1.873800 -1.490947 -7.792581 -0.112465 -1.132646 0.000126 0.000017 0.000005 -4.128836 -25.858250 -12.546404 -6.542471 3.598550 -3.987454 -6.571498 -0.347117 -3.451752 0.000055 0.000005 -0.000051 0.000000 0.000000 0.000000 0.000000 0.000000 0.000000 2.320082 5.539545 7.755130 -0.063868 -0.373280 9.466841 -5.007967 0.977676 17.144966 -0.328711 0.401648 -21.012714 0.000000 0.000000 0.000000 0.000000 0.000000 0.000000 0.000000 0.000000 0.000000 1.755782 9.960711 13.243563 0.038751 0.678705 5.369944 0.604361 9.547330 17.062649 0.797068 -0.797691 -18.955229 0.000000 0.000000 0.000000 0.000000 0.000000 0.000000 0.000000 0.000000 0.000000 
-0.224419 88.715767 3.089934 -0.244085 0.200799 -8.406728 -1.143888 0.261384 7.045871 1.227741 -0.132835 2.271181 -0.668377 1.791414 3.425997 1.219520 0.219997 2.892345 -3.426529 -0.594428 4.375421 -0.417675 -1.816141 -3.125142 0.159918 0.490203 -18.214642 0.000000 0.000000 0.000000 90.568321 -0.106560 6.689525 69.003838 -19.621172 2.001321 0.109692 9.439241 27.576277 3.683362 24.563488 -9.107307 10.836580 -1.830919 39.822968 -0.000004 0.000032 -26.490341 -0.000009 0.000032 -18.393553 0.000013 -0.000001 -0.000019 13.104788 17.123421 -9.911387 10.493032 -0.665290 -2.835970 10.546450 0.325456 -2.651690 -0.000001 0.000025 -0.000024 13.980618 7.096525 -10.288513 10.364910 -0.876082 -1.131193 10.389728 0.113236 -0.962909 0.000020 -0.000029 0.000001 19.028572 -9.161639 -10.313839 11.768964 1.818121 1.631335 11.696689 -0.166375 1.256908 -0.000036 0.000252 0.000001 23.855959 -25.922611 -12.045174 11.810710 3.415941 4.884674 11.569297 -0.541948 4.159303 0.000283 0.000006 -0.000002 0.000000 0.000000 0.000000 0.000000 0.000000 0.000000 -90.919678 0.246364 9.166292 -67.365814 32.959526 -2.523613 -1.305894 -13.854925 36.666672 -5.261199 -11.175997 -14.036497 -10.593385 1.821281 39.902164 0.000006 0.000020 -25.732187 -0.000024 -0.000011 -17.925343 -0.000848 0.000005 0.000095 -16.219946 17.098530 -9.497238 -8.927099 -0.709871 2.743962 -9.155893 0.272411 2.576362 0.000010 0.000731 0.000008 -13.136641 7.091806 -10.234482 -8.429872 -0.902013 1.049337 -8.186658 0.090646 0.905300 0.000523 -0.000032 -0.000168 -9.511780 -9.072047 -10.114618 -7.958363 1.876215 -1.481535 -7.859151 -0.110783 -1.125050 0.000157 0.000017 0.000005 -4.238388 -25.877594 -12.626077 -6.630589 3.604970 -3.966784 -6.652142 -0.342770 -3.432988 0.000024 0.000004 -0.000052 0.000000 0.000000 0.000000 0.000000 0.000000 0.000000 2.294187 5.542887 7.808820 -0.061615 -0.363916 9.536220 -5.025640 1.027004 17.149910 -0.315161 0.398454 -21.043549 0.000000 0.000000 0.000000 0.000000 0.000000 0.000000 0.000000 0.000000 0.000000 1.749221 9.967379 13.354202 0.037095 0.679319 5.239155 0.593370 9.481759 17.164604 0.804142 -0.801540 -18.973761 0.000000 0.000000 0.000000 0.000000 0.000000 0.000000 0.000000 0.000000 0.000000 
-0.227504 88.721764 3.064952 -0.198516 0.233582 -8.474869 -1.170666 0.263393 7.082693 1.217363 -0.131072 2.305977 -0.689624 1.811075 3.444958 1.230709 0.225069 2.865402 -3.459866 -0.510127 4.368985 -0.398931 -1.744051 -3.096801 0.137889 0.496549 -18.293591 0.000000 0.000000 0.000000 90.532143 -0.097310 6.711982 68.985550 -19.604084 2.023185 0.086628 9.569690 27.589510 3.769684 24.561293 -9.148641 10.785938 -1.824953 39.847908 -0.000004 0.000031 -26.372107 -0.000009 0.000034 -18.309128 0.000012 -0.000001 -0.000018 12.865767 17.131958 -9.762641 10.409092 -0.671255 -2.801897 10.452277 0.320247 -2.620793 -0.000002 0.000024 -0.000024 13.733491 7.100786 -10.160316 10.268965 -0.879038 -1.117015 10.283162 0.110638 -0.950307 0.000021 -0.000028 0.000002 18.815475 -9.169202 -10.274687 11.649564 1.821805 1.614172 11.577521 -0.163437 1.242733 -0.000034 0.000369 0.000002 23.714012 -25.934603 -12.112440 11.713696 3.426215 4.851068 11.464982 -0.535838 4.127194 0.000270 0.000005 -0.000005 0.000000 0.000000 0.000000 0.000000 0.000000 0.000000 -90.811226 0.231999 9.199096 -67.612907 32.642559 -2.645927 -1.306659 -13.934843 36.795509 -5.121873 -10.950895 -13.968700 -10.601019 1.820476 39.898800 0.000005 0.000020 -25.756187 -0.000024 -0.000011 -17.938044 -0.000942 0.000004 0.000106 -16.238001 17.094910 -9.425741 -8.979959 -0.713736 2.722975 -9.200770 0.268760 2.553432 0.000008 0.000661 0.000009 -13.145471 7.090643 -10.193871 -8.474301 -0.903380 1.038338 -8.234733 0.089196 0.896644 0.000518 -0.000032 -0.000176 -9.562613 -9.073172 -10.130623 -8.026139 1.877567 -1.471567 -7.925849 -0.109548 -1.116869 0.000155 0.000017 0.000004 -4.329090 -25.889275 -12.694327 -6.717834 3.608181 -3.948337 -6.733499 -0.340339 -3.413568 -0.000034 0.000003 -0.000052 0.000000 0.000000 0.000000 0.000000 0.000000 0.000000 2.223161 5.543808 7.865487 -0.060387 -0.356035 9.601339 -5.034365 1.101271 17.137711 -0.306379 0.390834 -21.073608 0.000000 0.000000 0.000000 0.000000 0.000000 0.000000 0.000000 0.000000 0.000000 1.712995 9.992989 13.435259 0.035200 0.677887 5.151690 0.601924 9.463386 17.267303 0.809222 -0.800768 -18.987749 0.000000 0.000000 0.000000 0.000000 0.000000 0.000000 0.000000 0.000000 0.000000 
